<svg width="63" height="130" viewBox="0 0 63 130" fill="none" xmlns="http://www.w3.org/2000/svg">
<mask id="mask0_18_18" style="mask-type:luminance" maskUnits="userSpaceOnUse" x="0" y="0" width="63" height="110">
<path d="M0 0H63V109.089H0V0Z" fill="white"/>
</mask>
<g mask="url(#mask0_18_18)">
<path d="M28.9169 1.495C27.2659 2.38041 26.5107 4.16166 25.5888 5.6825C14.8961 23.9221 9.00546 44.9169 8.64609 66.0419C3.45859 69.521 0.125254 75.6096 0.109629 81.8648C0.104419 89.7658 0.021086 97.6669 0.067962 105.568C0.151295 107.99 3.63046 109.146 5.14609 107.235C8.69296 102.547 12.0784 97.7346 15.5836 93.021C18.0888 89.7867 22.1305 87.7971 26.2294 87.8127C29.8075 87.7867 33.3857 87.7971 36.9638 87.7815C40.9742 87.7971 44.943 89.7085 47.3909 92.8908C50.9013 97.6096 54.2815 102.432 57.818 107.136C59.4117 109.089 62.9898 107.729 62.8805 105.209C62.9325 97.4273 62.9221 89.646 62.9534 81.8648C62.9846 75.6096 59.7294 69.4846 54.5575 65.9585C54.1825 43.9429 48.0003 21.995 36.443 3.20333C34.8961 0.76062 31.37 0.00541224 28.9169 1.495Z" fill="#FF914D"/>
</g>
<path d="M34.485 100.37C34.6048 99.0629 33.8028 97.7504 32.5528 97.3181C31.058 96.7243 29.2142 97.6046 28.7298 99.1358C28.3757 103.948 28.6413 108.818 28.5371 113.651C28.6309 115.308 28.0736 117.349 29.5475 118.573C31.2246 120.193 34.4017 118.896 34.4173 116.563C34.4798 111.167 34.4486 105.766 34.485 100.37Z" fill="#FF914D"/>
<mask id="mask1_18_18" style="mask-type:luminance" maskUnits="userSpaceOnUse" x="18" y="97" width="8" height="34">
<path d="M18.5527 97.0889H25.2194V130H18.5527V97.0889Z" fill="white"/>
</mask>
<g mask="url(#mask1_18_18)">
<path d="M19.0477 99.365C18.8393 108.224 18.9852 117.099 18.8966 125.964C18.7716 127.292 19.4435 128.719 20.7612 129.193C22.5216 129.995 24.782 128.542 24.7716 126.605C24.8341 117.855 24.8185 109.099 24.8602 100.349C24.9695 99.0369 24.1831 97.7035 22.9122 97.2765C21.3393 96.6619 19.3862 97.7035 19.0477 99.365Z" fill="#FF914D"/>
</g>
<mask id="mask2_18_18" style="mask-type:luminance" maskUnits="userSpaceOnUse" x="37" y="97" width="9" height="34">
<path d="M37.2188 97.0889H45.2188V130H37.2188V97.0889Z" fill="white"/>
</mask>
<g mask="url(#mask2_18_18)">
<path d="M38.4165 99.365C38.2133 108.224 38.3592 117.099 38.2706 125.964C38.1456 127.292 38.8175 128.719 40.13 129.193C41.8904 129.995 44.1509 128.542 44.1404 126.605C44.2029 117.855 44.1925 109.099 44.2342 100.349C44.3383 99.0369 43.5519 97.7035 42.2863 97.2765C40.7081 96.6619 38.755 97.7035 38.4165 99.365Z" fill="#FF914D"/>
</g>
</svg>
