<svg width="99" height="63" viewBox="0 0 99 63" fill="none" xmlns="http://www.w3.org/2000/svg">
<path d="M5.94699 47.7285H0V62.5651H3.5939V58.1949H5.94699C9.3935 58.1949 11.1159 55.5676 11.1159 52.9831C11.1159 50.3987 9.3935 47.7285 5.94699 47.7285ZM5.94699 54.8118H3.5939V51.2179H5.94699C7.06098 51.2179 7.60769 52.1639 7.60769 53.0465C7.60769 53.9069 7.06098 54.8118 5.94699 54.8118Z" fill="#FF914D"/>
<path d="M18.5291 47.729H12.8135V62.5656H16.3868V57.5852H16.9747L20.0424 62.5656H23.8677V61.8938L20.7142 57.2288C22.6474 56.3033 23.5935 54.4129 23.5935 52.6254C23.5935 50.1883 21.8916 47.729 18.5291 47.729ZM18.4451 54.329H16.3868V51.1755H18.4451C19.5385 51.1755 20.0853 51.9964 20.0853 52.7728C20.0853 53.5303 19.5163 54.329 18.4451 54.329Z" fill="#FF914D"/>
<path d="M25.6064 55.2312C25.6064 59.5604 29.0118 62.7755 33.2141 62.7755C37.4164 62.7755 40.8424 59.4969 40.8424 55.2312C40.8424 50.9021 37.4164 47.6235 33.2141 47.6235C29.0118 47.6235 25.6064 50.9021 25.6064 55.2312ZM29.1798 55.2312C29.1798 52.436 31.197 51.07 33.2141 51.07C35.2313 51.07 37.2279 52.4565 37.2279 55.2312C37.2279 57.9836 35.1902 59.3701 33.1713 59.3701C31.1541 59.3701 29.1798 58.0042 29.1798 55.2312Z" fill="#FF914D"/>
<path d="M52.0285 56.0917V47.7505H44.9041V51.0496H48.4552V56.0917C48.4552 58.3625 47.3001 59.2023 43.4131 59.2023V62.5648C49.6754 62.5648 52.0285 60.779 52.0285 56.0917Z" fill="#58595B"/>
<path d="M54.1689 47.728V62.5647H63.8778V59.0976H57.7834V56.7445H63.7304V53.2551H57.7834V51.1968H63.8572V47.728H54.1689Z" fill="#58595B"/>
<path d="M77.0504 47.687H65.5352V51.0495H69.5061V62.5648H73.1V51.0495H77.0504V47.687Z" fill="#58595B"/>
<path d="M87.3867 62.5662V59.3511H84.948V51.051H87.3867V47.7725H78.917V51.051H81.3558V59.3511H78.917V62.5662H87.3867Z" fill="#58595B"/>
<path d="M89.2275 47.8555V62.5653H98.9998V59.0982H92.8214V47.8555H89.2275Z" fill="#58595B"/>
<mask id="mask0_6_1407" style="mask-type:luminance" maskUnits="userSpaceOnUse" x="37" y="0" width="22" height="36">
<path d="M37.3496 0H58.0801V35.538H37.3496V0Z" fill="white"/>
</mask>
<g mask="url(#mask0_6_1407)">
<path d="M46.8658 0.39262C46.3225 0.683971 46.074 1.27181 45.7706 1.77225C42.2521 7.77237 40.3138 14.6808 40.1955 21.6321C38.4886 22.7787 37.3917 24.7821 37.3866 26.8387C37.3849 29.4386 37.3574 32.0385 37.3729 34.6384C37.4003 35.4353 38.5451 35.8158 39.0438 35.1868C40.211 33.6443 41.3249 32.0625 42.4784 30.5097C43.3027 29.4455 44.6326 28.7908 45.9814 28.7959C47.1588 28.7891 48.3362 28.7908 49.5136 28.7856C50.8333 28.7908 52.1392 29.4198 52.9447 30.4669C54.0998 32.0196 55.2121 33.6066 56.3758 35.1542C56.9002 35.7969 58.0776 35.3496 58.0416 34.5201C58.0588 31.9614 58.0553 29.3992 58.0656 26.8387C58.0759 24.7821 57.0048 22.7649 55.3029 21.6064C55.1795 14.3603 53.1452 7.13997 49.3422 0.95647C48.8332 0.15097 47.673 -0.0975353 46.8658 0.39262Z" fill="#FF914D"/>
</g>
<path d="M48.697 32.9279C48.7364 32.4994 48.4725 32.0658 48.0612 31.9236C47.5693 31.7299 46.9626 32.0178 46.8032 32.5217C46.6867 34.1053 46.7741 35.7077 46.7398 37.2981C46.7706 37.8431 46.5873 38.515 47.0723 38.9194C47.6241 39.4507 48.6696 39.024 48.6747 38.2562C48.6953 36.4806 48.685 34.7051 48.697 32.9279Z" fill="#FF914D"/>
<path d="M43.6171 32.5973C43.5485 35.5125 43.5965 38.4329 43.5674 41.3498C43.5262 41.7886 43.7473 42.2582 44.1809 42.4124C44.7602 42.6763 45.504 42.1982 45.5006 41.5606C45.5211 38.6814 45.516 35.8005 45.5297 32.9212C45.564 32.4893 45.3069 32.0523 44.8887 31.9101C44.3711 31.7096 43.7285 32.0506 43.6171 32.5973Z" fill="#FF914D"/>
<path d="M49.9904 32.5973C49.9235 35.5125 49.9715 38.4329 49.9424 41.3498C49.9012 41.7886 50.1223 42.2582 50.5542 42.4124C51.1335 42.6763 51.8773 42.1982 51.8739 41.5606C51.8944 38.6814 51.891 35.8005 51.9047 32.9212C51.939 32.4893 51.6802 32.0523 51.2637 31.9101C50.7444 31.7096 50.1018 32.0506 49.9904 32.5973Z" fill="#FF914D"/>
</svg>
