<svg width="103" height="65" viewBox="0 0 103 65" fill="none" xmlns="http://www.w3.org/2000/svg">
<path d="M6.13643 49.249H0V64.5583H3.70838V60.0488H6.13643C9.69273 60.0488 11.47 57.3378 11.47 54.671C11.47 52.0042 9.69273 49.249 6.13643 49.249ZM6.13643 56.5579H3.70838V52.8495H6.13643C7.2859 52.8495 7.85003 53.8257 7.85003 54.7364C7.85003 55.6242 7.2859 56.5579 6.13643 56.5579Z" fill="white"/>
<path d="M19.1213 49.249H13.2236V64.5583H16.9108V59.4192H17.5174L20.6828 64.5583H24.63V63.865L21.3761 59.0514C23.3708 58.0964 24.347 56.1459 24.347 54.3014C24.347 51.7867 22.591 49.249 19.1213 49.249ZM19.0347 56.0592H16.9108V52.8053H19.0347C20.1629 52.8053 20.7271 53.6524 20.7271 54.4535C20.7271 55.2351 20.1399 56.0592 19.0347 56.0592Z" fill="white"/>
<path d="M26.4219 56.9907C26.4219 61.4577 29.9357 64.7753 34.2719 64.7753C38.6081 64.7753 42.1432 61.3923 42.1432 56.9907C42.1432 52.5236 38.6081 49.1406 34.2719 49.1406C29.9357 49.1406 26.4219 52.5236 26.4219 56.9907ZM30.109 56.9907C30.109 54.1064 32.1905 52.6969 34.2719 52.6969C36.3533 52.6969 38.4136 54.1276 38.4136 56.9907C38.4136 59.8307 36.3109 61.2614 34.2277 61.2614C32.1463 61.2614 30.109 59.852 30.109 56.9907Z" fill="white"/>
<path d="M53.6858 57.8813V49.2744H46.3344V52.6786H49.9986V57.8813C49.9986 60.2245 48.8067 61.091 44.7959 61.091V64.5607C51.2577 64.5607 53.6858 62.718 53.6858 57.8813Z" fill="white"/>
<path d="M55.8936 49.249V64.5583H65.9117V60.9807H59.6232V58.5527H65.7596V54.9522H59.6232V52.8283H65.8905V49.249H55.8936Z" fill="white"/>
<path d="M79.5041 49.208H67.6221V52.6777H71.7195V64.5597H75.4279V52.6777H79.5041V49.208Z" fill="white"/>
<path d="M90.1673 64.558V61.2404H87.6508V52.676H90.1673V49.293H81.4277V52.676H83.9442V61.2404H81.4277V64.558H90.1673Z" fill="white"/>
<path d="M92.0703 49.3789V64.5573H102.154V60.9798H95.7787V49.3789H92.0703Z" fill="white"/>
<mask id="mask0_6_2017" style="mask-type:luminance" maskUnits="userSpaceOnUse" x="38" y="0" width="22" height="37">
<path d="M38.5391 0H59.9299V36.67H38.5391V0Z" fill="white"/>
</mask>
<g mask="url(#mask0_6_2017)">
<path d="M48.3578 0.404522C47.7972 0.705154 47.5407 1.31172 47.2277 1.8281C43.5972 8.01935 41.5971 15.1479 41.475 22.3206C39.7137 23.5037 38.5819 25.5709 38.5766 27.6931C38.5748 30.3758 38.5465 33.0585 38.5625 35.7412C38.5908 36.5635 39.7721 36.9561 40.2867 36.307C41.491 34.7155 42.6404 33.0832 43.8306 31.481C44.6812 30.3828 46.0535 29.7073 47.4452 29.7126C48.6602 29.7055 49.8751 29.7073 51.09 29.702C52.4517 29.7073 53.7992 30.3563 54.6303 31.4368C55.8223 33.039 56.97 34.6766 58.1707 36.2734C58.7119 36.9366 59.9268 36.475 59.8896 35.6191C59.9073 32.9789 59.9038 30.3351 59.9144 27.6931C59.925 25.5709 58.8197 23.4895 57.0637 22.2941C56.9364 14.8172 54.8373 7.3668 50.9131 0.986333C50.3879 0.155174 49.1907 -0.101247 48.3578 0.404522Z" fill="white"/>
</g>
<path d="M50.2489 33.9769C50.2896 33.5348 50.0172 33.0874 49.5928 32.9406C49.0853 32.7408 48.4592 33.0379 48.2948 33.5578C48.1745 35.1918 48.2647 36.8453 48.2293 38.4864C48.2612 39.0488 48.072 39.742 48.5724 40.1593C49.1419 40.7076 50.2206 40.2672 50.2259 39.475C50.2471 37.6429 50.2365 35.8108 50.2489 33.9769Z" fill="white"/>
<path d="M45.0065 33.6362C44.9358 36.6443 44.9853 39.6577 44.9552 42.6675C44.9128 43.1202 45.1409 43.6048 45.5883 43.764C46.186 44.0363 46.9535 43.5429 46.95 42.885C46.9712 39.9141 46.9659 36.9414 46.9801 33.9704C47.0154 33.5248 46.7502 33.0738 46.3187 32.9271C45.7846 32.7202 45.1214 33.0721 45.0065 33.6362Z" fill="white"/>
<path d="M51.5829 33.6362C51.5139 36.6443 51.5634 39.6577 51.5333 42.6675C51.4909 43.1202 51.719 43.6048 52.1647 43.764C52.7624 44.0363 53.5299 43.5429 53.5264 42.885C53.5476 39.9141 53.544 36.9414 53.5582 33.9704C53.5936 33.5248 53.3265 33.0738 52.8968 32.9271C52.361 32.7202 51.6978 33.0721 51.5829 33.6362Z" fill="white"/>
</svg>
